# xmcd
# Copyright (C) 1995-1998 Ti Kan
#
# Track frame offsets:
#       150
#       13716
#       27423
#       41768
#       56748
#       68989
#       82217
#       96917
#       110876
#       124592
#       139290
#       152807
#       166826
#       194861
#
# Disc length: 2884 seconds
#
# Revision: 0
# Processed by: cddbd v1.5.2PL0 Copyright (c) Steve Scherf et al.
# Submitted via: CD-Import v1.0
#
DISCID=d30b420e
DTITLE=Parov Stelar - Coco
DYEAR=1900
DGENRE=
TTITLE0=Coco Feat. Lilja Bloom
TTITLE1=Hurt
TTITLE2=For Rose
TTITLE3=True Romance Feat. Lilja Bloom
TTITLE4=Distance Feat. Lylith
TTITLE5=Wake Up Sister Feat. Max The Sax
TTITLE6=Let's Roll Feat. Blaktroniks
TTITLE7=Sunny Bunny Blues Feat. Veda 36
TTITLE8=Dandy Feat. Yola B.
TTITLE9=Your Man
TTITLE10=Promises Feat.klaus Hairy
TTITLE11=Létoile Feat. Max The Sax
TTITLE12=You And Me Feat. Lilja Bloom
TTITLE13=Data Track
EXTD=
EXTT0=
EXTT1=
EXTT2=
EXTT3=
EXTT4=
EXTT5=
EXTT6=
EXTT7=
EXTT8=
EXTT9=
EXTT10=
EXTT11=
EXTT12=
EXTT13=
PLAYORDER=
